<?xml version="1.0" encoding="utf-8"?>
<!-- Generator: Adobe Illustrator 23.0.4, SVG Export Plug-In . SVG Version: 6.00 Build 0)  -->
<svg version="1.1" id="Ebene_1" xmlns="http://www.w3.org/2000/svg" xmlns:xlink="http://www.w3.org/1999/xlink" x="0px" y="0px"
	 viewBox="0 0 76.17 82.76" style="enable-background:new 0 0 76.17 82.76;" xml:space="preserve">
<style type="text/css">
	.st0{fill:#697D91;}
	.st1{fill:#FAC300;}
</style>
<path class="st0" d="M22.24,2.18c7.76,0,14.04,6.29,14.04,14.04c0,5.21-2.42,9.73-6.32,12.18c-0.08,0.05-0.13,0.12-0.13,0.22
	c0,0.17,0.14,0.22,0.15,0.22c5.07,1.96,8.25,7.14,8.25,13.15c0,7.76-6.29,14.05-14.05,14.05l-18.55,0c-1.08,0-1.95-0.87-1.95-1.95
	V4.13c0-1.08,0.87-1.95,1.95-1.95H22.24z"/>
<path class="st1" d="M15.45,46.5c-0.25,0-0.46-0.21-0.46-0.46V34.78c0-0.25,0.21-0.46,0.46-0.46h0.71c0.25,0,0.46,0.21,0.46,0.46
	v4.99H21v-4.99c0-0.25,0.21-0.46,0.46-0.46h0.71c0.25,0,0.46,0.21,0.46,0.46v11.26c0,0.25-0.21,0.46-0.46,0.46h-0.71
	c-0.25,0-0.46-0.21-0.46-0.46V41.2h-4.38v4.84c0,0.25-0.21,0.46-0.46,0.46H15.45z"/>
<path class="st1" d="M15.4,23.85c-0.25,0-0.46-0.21-0.46-0.46V12.13c0-0.25,0.21-0.46,0.46-0.46h6.77c0.25,0,0.46,0.21,0.46,0.46
	v0.48c0,0.25-0.21,0.46-0.46,0.46h-5.61v3.92h4.78c0.25,0,0.46,0.21,0.46,0.46v0.48c0,0.25-0.21,0.46-0.46,0.46h-4.78v5.01
	c0,0.25-0.21,0.46-0.46,0.46H15.4z"/>
<g>
	<path class="st0" d="M3.88,68.97c-0.11,0-0.2-0.09-0.2-0.2v-4.78c0-0.1,0.09-0.2,0.2-0.2h1.33c1.09,0,1.49,0.57,1.49,1.38
		c0,0.54-0.13,0.83-0.63,1.04c0.5,0.14,0.86,0.53,0.86,1.3c0,1.03-0.68,1.45-1.64,1.45H3.88z M4.37,65.99h0.86
		c0.61,0,0.74-0.25,0.74-0.8c0-0.54-0.17-0.82-0.78-0.82H4.37V65.99z M4.38,68.39h0.84c0.72,0,0.98-0.28,0.98-0.91
		c0-0.62-0.23-0.91-0.95-0.91H4.38V68.39z"/>
	<path class="st0" d="M9.63,69.07c-0.98,0-1.54-0.57-1.54-1.98c0-1.43,0.59-1.97,1.47-1.97c0.89,0,1.4,0.51,1.4,1.87v0.13
		c0,0.07-0.05,0.12-0.12,0.12H8.78c0.01,1.03,0.24,1.28,0.86,1.28c0.32,0,0.53-0.1,0.73-0.23c0.09-0.07,0.22-0.04,0.28,0.04
		l0.12,0.16c0.06,0.08,0.05,0.21-0.04,0.27C10.42,68.97,10.1,69.07,9.63,69.07z M9.55,65.62c-0.44,0-0.71,0.23-0.76,1.13h1.49
		C10.28,65.89,10.09,65.62,9.55,65.62z"/>
	<path class="st0" d="M12.47,68.97c-0.1,0-0.2-0.09-0.2-0.2V65.4c0-0.1,0.09-0.19,0.2-0.19h0.11c0.11,0,0.21,0.08,0.23,0.19
		l0.07,0.34c0.28-0.34,0.62-0.6,1.06-0.6c0.02,0,0.05,0,0.08,0.01c0.03,0.01,0.06,0.04,0.05,0.07l-0.05,0.53
		c-0.01,0.05-0.06,0.1-0.12,0.09c-0.04-0.01-0.08-0.01-0.12-0.01c-0.35,0-0.58,0.13-0.86,0.38v2.57c0,0.11-0.09,0.2-0.19,0.2H12.47z
		"/>
	<path class="st0" d="M15.42,68.97c-0.1,0-0.2-0.09-0.2-0.2V65.4c0-0.1,0.09-0.19,0.2-0.19h0.11c0.11,0,0.21,0.08,0.23,0.19
		l0.06,0.28c0.33-0.33,0.71-0.56,1.15-0.56c0.54,0,0.91,0.28,0.91,0.92v2.75c0,0.11-0.09,0.2-0.2,0.2h-0.26
		c-0.1,0-0.19-0.09-0.19-0.2v-2.54c0-0.43-0.12-0.55-0.46-0.55c-0.3,0-0.64,0.21-0.91,0.45v2.64c0,0.11-0.09,0.2-0.19,0.2H15.42z"/>
	<path class="st0" d="M22.75,69.07c-0.72,0-1.41-0.38-1.41-1.58v-3.49c0-0.1,0.09-0.2,0.2-0.2h0.3c0.1,0,0.2,0.09,0.2,0.2v3.37
		c0,0.76,0.14,1.1,0.8,1.1c0.54,0,0.92-0.27,1.13-0.48v-3.99c0-0.1,0.09-0.2,0.2-0.2h0.3c0.1,0,0.2,0.09,0.2,0.2v4.78
		c0,0.11-0.09,0.2-0.2,0.2h-0.12c-0.11,0-0.22-0.08-0.24-0.19l-0.08-0.29C23.73,68.78,23.31,69.07,22.75,69.07z"/>
	<path class="st0" d="M26.47,68.97c-0.1,0-0.2-0.09-0.2-0.2V65.4c0-0.1,0.09-0.19,0.2-0.19h0.11c0.11,0,0.21,0.08,0.23,0.19
		l0.06,0.28c0.33-0.33,0.71-0.56,1.15-0.56c0.54,0,0.91,0.28,0.91,0.92v2.75c0,0.11-0.09,0.2-0.2,0.2h-0.26
		c-0.1,0-0.19-0.09-0.19-0.2v-2.54c0-0.43-0.12-0.55-0.46-0.55c-0.3,0-0.64,0.21-0.91,0.45v2.64c0,0.11-0.09,0.2-0.19,0.2H26.47z"/>
	<path class="st0" d="M30.85,68.97c-0.1,0-0.19-0.09-0.19-0.2v-3.06l-0.36-0.06c-0.11-0.01-0.2-0.11-0.2-0.23V65.4
		c0-0.1,0.09-0.19,0.2-0.19h0.81c0.1,0,0.2,0.09,0.2,0.19v3.37c0,0.11-0.09,0.2-0.2,0.2H30.85z M30.96,64.51
		c-0.26,0-0.44-0.2-0.44-0.46c0-0.26,0.19-0.47,0.45-0.47c0.26,0,0.46,0.2,0.46,0.47C31.43,64.31,31.23,64.51,30.96,64.51z"/>
	<path class="st0" d="M33.88,68.97c-0.11,0-0.22-0.08-0.26-0.19L32.5,65.4c-0.03-0.1,0.04-0.19,0.14-0.19h0.32
		c0.11,0,0.22,0.07,0.25,0.19l0.59,1.97c0.08,0.27,0.17,0.72,0.23,0.98h0.01c0.05-0.22,0.14-0.7,0.23-0.99l0.59-1.95
		c0.03-0.11,0.14-0.19,0.25-0.19h0.28c0.1,0,0.17,0.09,0.14,0.19l-1.14,3.39c-0.04,0.11-0.14,0.19-0.25,0.19H33.88z"/>
	<path class="st0" d="M37.96,69.07c-0.98,0-1.54-0.57-1.54-1.98c0-1.43,0.59-1.97,1.47-1.97c0.89,0,1.4,0.51,1.4,1.87v0.13
		c0,0.07-0.05,0.12-0.12,0.12h-2.06c0.02,1.03,0.24,1.28,0.86,1.28c0.32,0,0.53-0.1,0.73-0.23c0.09-0.07,0.22-0.04,0.28,0.04
		l0.12,0.16c0.06,0.08,0.04,0.21-0.04,0.27C38.74,68.97,38.43,69.07,37.96,69.07z M37.87,65.62c-0.44,0-0.71,0.23-0.76,1.13h1.49
		C38.61,65.89,38.41,65.62,37.87,65.62z"/>
	<path class="st0" d="M40.79,68.97c-0.1,0-0.2-0.09-0.2-0.2V65.4c0-0.1,0.09-0.19,0.2-0.19h0.11c0.11,0,0.21,0.08,0.23,0.19
		l0.07,0.34c0.28-0.34,0.62-0.6,1.06-0.6c0.02,0,0.05,0,0.08,0.01c0.03,0.01,0.06,0.04,0.05,0.07l-0.05,0.53
		c-0.01,0.05-0.06,0.1-0.12,0.09c-0.04-0.01-0.08-0.01-0.12-0.01c-0.35,0-0.58,0.13-0.86,0.38v2.57c0,0.11-0.09,0.2-0.19,0.2H40.79z
		"/>
	<path class="st0" d="M44.47,69.07c-0.41,0-0.81-0.13-1.09-0.29c-0.09-0.06-0.12-0.18-0.07-0.27l0.08-0.14
		c0.05-0.1,0.17-0.13,0.26-0.08c0.26,0.15,0.53,0.24,0.84,0.24c0.51,0,0.67-0.2,0.67-0.55c0-0.42-0.2-0.5-0.8-0.67
		c-0.53-0.14-0.96-0.42-0.96-1.16c0-0.55,0.35-1.03,1.18-1.03c0.36,0,0.63,0.06,0.87,0.16c0.1,0.04,0.14,0.17,0.1,0.26l-0.07,0.15
		c-0.04,0.1-0.16,0.15-0.26,0.11c-0.22-0.1-0.39-0.13-0.62-0.13c-0.41,0-0.59,0.14-0.59,0.46c0,0.35,0.16,0.44,0.68,0.59
		c0.58,0.16,1.1,0.38,1.1,1.23C45.8,68.72,45.36,69.07,44.47,69.07z"/>
	<path class="st0" d="M47.51,68.97c-0.1,0-0.2-0.09-0.2-0.2v-3.06l-0.36-0.06c-0.11-0.01-0.19-0.11-0.19-0.23V65.4
		c0-0.1,0.09-0.19,0.19-0.19h0.81c0.1,0,0.2,0.09,0.2,0.19v3.37c0,0.11-0.09,0.2-0.2,0.2H47.51z M47.63,64.51
		c-0.26,0-0.44-0.2-0.44-0.46c0-0.26,0.2-0.47,0.45-0.47c0.26,0,0.46,0.2,0.46,0.47C48.09,64.31,47.9,64.51,47.63,64.51z"/>
	<path class="st0" d="M49.37,65.74c-0.1,0-0.19-0.09-0.19-0.2V65.4c0-0.1,0.09-0.19,0.19-0.19h0.23v-0.77
		c0-0.11,0.08-0.21,0.19-0.24l0.27-0.05c0.1-0.02,0.19,0.05,0.19,0.15v0.92h0.58c0.1,0,0.2,0.09,0.2,0.19v0.14
		c0,0.1-0.09,0.2-0.2,0.2h-0.58v2.47c0,0.24,0.1,0.34,0.31,0.34c0.09,0,0.17-0.01,0.23-0.04c0.1-0.03,0.2,0.03,0.23,0.13l0.03,0.11
		c0.02,0.11-0.03,0.21-0.13,0.25c-0.12,0.04-0.26,0.07-0.41,0.07c-0.51,0-0.9-0.2-0.9-0.8v-2.53H49.37z"/>
	<path class="st0" d="M52.61,70.48c-0.11,0.03-0.21-0.04-0.24-0.14l-0.04-0.14c-0.03-0.11,0.03-0.22,0.13-0.25
		c0.47-0.15,0.66-0.35,0.85-0.98h-0.01c-0.09,0-0.16-0.06-0.2-0.14l-1.07-3.43c-0.03-0.1,0.04-0.19,0.14-0.19h0.32
		c0.11,0,0.22,0.07,0.25,0.19l0.58,2.03c0.08,0.3,0.17,0.74,0.23,1.03h0.01c0.05-0.27,0.12-0.66,0.23-1.03l0.61-2.03
		c0.04-0.11,0.14-0.19,0.25-0.19h0.28c0.1,0,0.17,0.09,0.14,0.19l-1.19,3.69C53.54,70.1,53.25,70.33,52.61,70.48z"/>
	<path class="st0" d="M5.23,78.07c-0.92,0-1.54-0.57-1.54-1.98c0-1.41,0.61-1.97,1.52-1.97c0.92,0,1.55,0.56,1.55,1.97
		C6.76,77.5,6.14,78.07,5.23,78.07z M5.23,77.56c0.57,0,0.84-0.31,0.84-1.46c0-1.16-0.28-1.47-0.85-1.47c-0.57,0-0.84,0.3-0.84,1.46
		C4.38,77.24,4.65,77.56,5.23,77.56z"/>
	<path class="st0" d="M7.87,74.74c-0.11,0-0.2-0.09-0.2-0.2V74.4c0-0.1,0.09-0.19,0.2-0.19h0.22v-0.6c0-0.86,0.44-1.12,1-1.12
		c0.22,0,0.43,0.04,0.61,0.11c0.1,0.04,0.14,0.16,0.1,0.26l-0.06,0.13c-0.04,0.1-0.17,0.15-0.27,0.12
		c-0.09-0.03-0.19-0.05-0.29-0.05c-0.32,0-0.44,0.16-0.44,0.54v0.61h0.51c0.1,0,0.19,0.09,0.19,0.19v0.14c0,0.1-0.09,0.2-0.19,0.2
		H8.73v3.04c0,0.11-0.09,0.2-0.2,0.2H8.28c-0.11,0-0.2-0.09-0.2-0.2v-3.04H7.87z"/>
	<path class="st0" d="M12.22,77.97c-0.1,0-0.17-0.09-0.13-0.19l1.48-4.8c0.04-0.11,0.14-0.19,0.26-0.19h0.38
		c0.11,0,0.22,0.08,0.25,0.19l1.45,4.8c0.02,0.1-0.05,0.19-0.14,0.19h-0.37c-0.11,0-0.22-0.08-0.25-0.19l-0.37-1.31h-1.6l-0.38,1.31
		c-0.03,0.11-0.13,0.19-0.25,0.19H12.22z M13.6,74.99l-0.26,0.89h1.26l-0.25-0.89c-0.23-0.8-0.29-1.1-0.36-1.49h-0.02
		C13.9,73.91,13.83,74.2,13.6,74.99z"/>
	<path class="st0" d="M17.32,79.48c-0.1,0-0.2-0.09-0.2-0.2V74.4c0-0.1,0.09-0.19,0.2-0.19h0.11c0.11,0,0.22,0.08,0.24,0.19
		l0.06,0.24c0.29-0.32,0.65-0.53,1.04-0.53c0.72,0,1.28,0.41,1.28,1.95c0,1.41-0.41,2-1.29,2c-0.41,0-0.76-0.19-1-0.42v1.64
		c0,0.11-0.09,0.2-0.19,0.2H17.32z M18.6,77.51c0.53,0,0.77-0.2,0.77-1.4c0-1.21-0.2-1.44-0.71-1.44c-0.37,0-0.62,0.19-0.89,0.44
		v2.03C17.98,77.36,18.28,77.51,18.6,77.51z"/>
	<path class="st0" d="M21.62,79.48c-0.11,0-0.2-0.09-0.2-0.2V74.4c0-0.1,0.09-0.19,0.2-0.19h0.11c0.11,0,0.22,0.08,0.24,0.19
		l0.06,0.24c0.29-0.32,0.65-0.53,1.04-0.53c0.72,0,1.28,0.41,1.28,1.95c0,1.41-0.41,2-1.29,2c-0.41,0-0.76-0.19-1-0.42v1.64
		c0,0.11-0.09,0.2-0.2,0.2H21.62z M22.9,77.51c0.53,0,0.77-0.2,0.77-1.4c0-1.21-0.2-1.44-0.71-1.44c-0.37,0-0.62,0.19-0.89,0.44
		v2.03C22.29,77.36,22.59,77.51,22.9,77.51z"/>
	<path class="st0" d="M26.41,78.05c-0.48,0-0.68-0.26-0.68-0.92v-4.4c0-0.1,0.09-0.2,0.2-0.2h0.25c0.11,0,0.2,0.09,0.2,0.2v4.52
		c0,0.19,0.08,0.26,0.26,0.26c0.03,0,0.06,0,0.08-0.01c0.04,0,0.08,0.02,0.08,0.06l0.04,0.22c0.02,0.1-0.04,0.21-0.15,0.23
		C26.6,78.03,26.5,78.05,26.41,78.05z"/>
	<path class="st0" d="M28.38,77.97c-0.1,0-0.2-0.09-0.2-0.2v-3.06l-0.36-0.06c-0.11-0.01-0.19-0.11-0.19-0.23V74.4
		c0-0.1,0.09-0.19,0.19-0.19h0.81c0.11,0,0.2,0.09,0.2,0.19v3.37c0,0.11-0.09,0.2-0.2,0.2H28.38z M28.49,73.51
		c-0.26,0-0.44-0.2-0.44-0.46c0-0.26,0.2-0.47,0.45-0.47c0.26,0,0.46,0.2,0.46,0.47C28.96,73.31,28.76,73.51,28.49,73.51z"/>
	<path class="st0" d="M31.7,78.07c-0.98,0-1.54-0.57-1.54-1.98c0-1.43,0.59-1.97,1.47-1.97c0.89,0,1.4,0.51,1.4,1.87v0.13
		c0,0.07-0.05,0.12-0.12,0.12h-2.06c0.01,1.03,0.24,1.28,0.86,1.28c0.32,0,0.53-0.1,0.73-0.23c0.09-0.07,0.22-0.04,0.28,0.04
		l0.12,0.16c0.06,0.08,0.05,0.21-0.04,0.27C32.48,77.97,32.17,78.07,31.7,78.07z M31.61,74.62c-0.44,0-0.71,0.23-0.76,1.13h1.49
		C32.35,74.89,32.15,74.62,31.61,74.62z"/>
	<path class="st0" d="M35.47,78.07c-0.72,0-1.28-0.41-1.28-1.95c0-1.41,0.41-2,1.29-2c0.41,0,0.76,0.22,1,0.46v-1.84
		c0-0.1,0.09-0.2,0.2-0.2h0.26c0.1,0,0.2,0.09,0.2,0.2v5.04c0,0.11-0.09,0.2-0.2,0.2h-0.11c-0.11,0-0.22-0.08-0.25-0.19l-0.05-0.2
		C36.23,77.9,35.87,78.07,35.47,78.07z M35.58,77.51c0.37,0,0.62-0.15,0.89-0.41v-2.03c-0.22-0.21-0.52-0.41-0.83-0.41
		c-0.53,0-0.77,0.2-0.77,1.4S35.07,77.51,35.58,77.51z"/>
	<path class="st0" d="M41.79,78.07c-0.53,0-1.04-0.16-1.4-0.41c-0.09-0.06-0.12-0.19-0.06-0.28l0.1-0.17
		c0.06-0.09,0.18-0.12,0.26-0.06c0.34,0.23,0.61,0.32,1.04,0.32c0.69,0,0.95-0.32,0.95-0.85c0-0.63-0.35-0.81-0.98-1.05
		c-0.86-0.33-1.25-0.68-1.25-1.54c0-0.89,0.56-1.34,1.46-1.34c0.47,0,0.8,0.09,1.08,0.26c0.09,0.05,0.13,0.17,0.08,0.27l-0.1,0.2
		c-0.05,0.09-0.17,0.13-0.26,0.08c-0.23-0.13-0.46-0.2-0.76-0.2c-0.5,0-0.81,0.2-0.81,0.72c0,0.53,0.2,0.68,0.83,0.92
		c0.8,0.31,1.43,0.62,1.43,1.66C43.4,77.36,43.01,78.07,41.79,78.07z"/>
	<path class="st0" d="M46.09,78.07c-0.96,0-1.49-0.63-1.49-1.98c0-1.43,0.57-1.97,1.5-1.97c0.36,0,0.65,0.08,0.92,0.3
		c0.09,0.07,0.1,0.19,0.03,0.27l-0.12,0.15c-0.08,0.08-0.2,0.09-0.28,0.02c-0.17-0.13-0.32-0.2-0.57-0.2
		c-0.57,0-0.79,0.25-0.79,1.43c0,1.16,0.24,1.43,0.84,1.43c0.23,0,0.39-0.09,0.55-0.22c0.08-0.07,0.21-0.06,0.28,0.02l0.14,0.14
		c0.08,0.08,0.07,0.2-0.02,0.27C46.83,77.96,46.52,78.07,46.09,78.07z"/>
	<path class="st0" d="M48.91,77.97c-0.1,0-0.2-0.09-0.2-0.2v-3.06l-0.36-0.06c-0.11-0.01-0.19-0.11-0.19-0.23V74.4
		c0-0.1,0.09-0.19,0.19-0.19h0.81c0.1,0,0.2,0.09,0.2,0.19v3.37c0,0.11-0.09,0.2-0.2,0.2H48.91z M49.03,73.51
		c-0.26,0-0.44-0.2-0.44-0.46c0-0.26,0.2-0.47,0.45-0.47c0.26,0,0.46,0.2,0.46,0.47C49.49,73.31,49.3,73.51,49.03,73.51z"/>
	<path class="st0" d="M52.23,78.07c-0.98,0-1.54-0.57-1.54-1.98c0-1.43,0.59-1.97,1.47-1.97c0.89,0,1.4,0.51,1.4,1.87v0.13
		c0,0.07-0.05,0.12-0.12,0.12h-2.06c0.01,1.03,0.24,1.28,0.86,1.28c0.32,0,0.53-0.1,0.73-0.23c0.09-0.07,0.22-0.04,0.28,0.04
		l0.12,0.16c0.06,0.08,0.04,0.21-0.04,0.27C53.02,77.97,52.7,78.07,52.23,78.07z M52.15,74.62c-0.44,0-0.71,0.23-0.76,1.13h1.49
		C52.88,74.89,52.69,74.62,52.15,74.62z"/>
	<path class="st0" d="M55.07,77.97c-0.11,0-0.2-0.09-0.2-0.2V74.4c0-0.1,0.09-0.19,0.2-0.19h0.11c0.11,0,0.21,0.08,0.23,0.19
		l0.06,0.28c0.33-0.33,0.71-0.56,1.15-0.56c0.54,0,0.91,0.28,0.91,0.92v2.75c0,0.11-0.09,0.2-0.2,0.2h-0.26c-0.1,0-0.2-0.09-0.2-0.2
		v-2.54c0-0.43-0.12-0.55-0.46-0.55c-0.3,0-0.64,0.21-0.91,0.45v2.64c0,0.11-0.09,0.2-0.2,0.2H55.07z"/>
	<path class="st0" d="M60.34,78.07c-0.96,0-1.49-0.63-1.49-1.98c0-1.43,0.57-1.97,1.5-1.97c0.36,0,0.65,0.08,0.92,0.3
		c0.09,0.07,0.1,0.19,0.03,0.27l-0.12,0.15c-0.07,0.08-0.19,0.09-0.28,0.02c-0.17-0.13-0.32-0.2-0.57-0.2
		c-0.57,0-0.79,0.25-0.79,1.43c0,1.16,0.24,1.43,0.84,1.43c0.23,0,0.39-0.09,0.55-0.22c0.08-0.07,0.21-0.06,0.28,0.02l0.14,0.14
		c0.07,0.08,0.07,0.2-0.02,0.27C61.07,77.96,60.77,78.07,60.34,78.07z"/>
	<path class="st0" d="M63.9,78.07c-0.98,0-1.54-0.57-1.54-1.98c0-1.43,0.59-1.97,1.47-1.97c0.89,0,1.4,0.51,1.4,1.87v0.13
		c0,0.07-0.05,0.12-0.12,0.12h-2.06c0.01,1.03,0.24,1.28,0.86,1.28c0.32,0,0.53-0.1,0.73-0.23c0.09-0.07,0.22-0.04,0.28,0.04
		l0.12,0.16c0.06,0.08,0.04,0.21-0.04,0.27C64.69,77.97,64.37,78.07,63.9,78.07z M63.82,74.62c-0.44,0-0.71,0.23-0.76,1.13h1.49
		C64.55,74.89,64.36,74.62,63.82,74.62z"/>
	<path class="st0" d="M67.43,78.07c-0.41,0-0.81-0.13-1.09-0.29c-0.09-0.06-0.12-0.18-0.07-0.27l0.08-0.14
		c0.05-0.1,0.17-0.13,0.26-0.08c0.26,0.15,0.53,0.24,0.84,0.24c0.51,0,0.67-0.2,0.67-0.55c0-0.42-0.2-0.5-0.8-0.67
		c-0.53-0.14-0.96-0.42-0.96-1.16c0-0.55,0.35-1.03,1.18-1.03c0.36,0,0.63,0.06,0.87,0.16c0.1,0.04,0.14,0.17,0.1,0.26l-0.07,0.15
		c-0.04,0.1-0.16,0.15-0.26,0.11c-0.22-0.1-0.39-0.13-0.62-0.13c-0.41,0-0.59,0.14-0.59,0.46c0,0.35,0.16,0.44,0.68,0.59
		c0.58,0.16,1.1,0.38,1.1,1.23C68.76,77.72,68.32,78.07,67.43,78.07z"/>
</g>
</svg>
